<?xml version="1.0" encoding="UTF-8"?>
<svg version="1.1" xmlns="http://www.w3.org/2000/svg" width="256" height="256">
<path d="M0 0 C4.48538631 1.32760526 7.32502713 4.49564566 10.521348 7.77440548 C11.29319431 8.53048092 12.06504063 9.28655636 12.86027622 10.06554317 C15.39920111 12.56493487 17.90387236 15.09572438 20.40782261 17.63011837 C22.16484514 19.38107664 23.92320172 21.13069718 25.68283176 22.879035 C29.36306677 26.54600922 33.02655205 30.22874752 36.67906284 33.92333126 C41.35991716 38.65546477 46.07953903 43.34555883 50.81301308 48.02512932 C54.45046983 51.63004691 58.06619578 55.25614873 61.67573452 58.88900089 C63.40786415 60.62712958 65.14669155 62.35861031 66.89227581 64.0832262 C69.33015862 66.49822037 71.7372794 68.94024941 74.1385355 71.39159298 C75.22538891 72.45111927 75.22538891 72.45111927 76.33419895 73.53205013 C79.52740648 76.8496049 81.71490258 79.46597435 82.15670872 84.15380001 C81.62876572 90.00171365 77.87439695 93.23381806 73.81211948 97.12255001 C73.02208027 97.91390347 72.23204105 98.70525692 71.41806126 99.52059078 C68.80911496 102.12328164 66.16978369 104.69266881 63.52891636 107.26293087 C61.71092043 109.06413576 59.89490536 110.86734202 58.08079624 112.67246151 C53.79408081 116.92835975 49.48795673 121.16360219 45.17167616 125.38943619 C40.25678403 130.20356139 35.36757166 135.04341742 30.480299 139.88555443 C20.43097686 149.84092611 10.34999276 159.76371434 0.24766636 169.66527462 C-2.60393686 168.38197267 -4.53300165 167.09912826 -6.61906338 164.77606869 C-7.15139017 164.19223258 -7.68371696 163.60839647 -8.23217487 163.00686836 C-8.80230871 162.37247495 -9.37244255 161.73808153 -9.95985317 161.08446407 C-17.15890717 153.22667745 -24.6316378 145.68114636 -32.19626904 138.17673969 C-34.49380944 135.89693196 -36.7874946 133.61330534 -39.08024502 131.32868099 C-45.58622045 124.84689492 -52.09822012 118.37118392 -58.61415005 111.89940548 C-62.62853894 107.91169883 -66.63812212 103.91921298 -70.64473248 99.92369175 C-72.16676549 98.40787405 -73.69069425 96.89395744 -75.21653271 95.38197041 C-77.33177306 93.28581242 -79.44090481 91.18368952 -81.54872036 89.08006954 C-82.18127743 88.45627407 -82.8138345 87.8324786 -83.46555996 87.18978024 C-87.75233364 82.89317694 -87.75233364 82.89317694 -87.75233364 80.66527462 C-86.26482964 79.20223808 -86.26482964 79.20223808 -84.21899319 77.50876522 C-80.01148962 73.92806348 -76.13659462 70.12699612 -72.28578091 66.16942501 C-70.83955791 64.69358176 -69.39322848 63.21784281 -67.94680691 61.74219418 C-67.19291243 60.97120451 -66.43901794 60.20021484 -65.66227818 59.40586185 C-61.63350853 55.29218137 -57.58506695 51.1979158 -53.53944302 47.1008215 C-48.40734197 41.90260942 -43.2816665 36.69860368 -38.18080044 31.46971798 C-34.04144389 27.22752093 -29.88046544 23.00765444 -25.70400715 18.80199146 C-24.12071165 17.19958349 -22.54549134 15.58915407 -20.97868443 13.97062016 C-18.78900457 11.71087705 -16.572767 9.48077608 -14.34828091 7.25536251 C-13.3917638 6.24795261 -13.3917638 6.24795261 -12.41592312 5.220191 C-8.5526438 1.42554637 -5.53697252 -0.46069584 0 0 Z M-18.18983364 70.72777462 C-22.21300342 76.43914099 -22.39696758 81.84523439 -21.75233364 88.66527462 C-20.14660485 94.65863176 -16.69570301 97.99297665 -11.75233364 101.53636837 C-7.0849527 104.17088613 -1.98445277 104.16104225 3.24766636 103.66527462 C8.64191655 101.86719122 13.38093482 99.69718826 16.44297886 94.72386837 C19.83671676 87.90079391 20.40874637 82.14851466 17.99766636 74.91527462 C14.60278326 68.61049172 11.14796149 64.81945691 4.24766636 62.66527462 C-5.13877684 61.31264307 -12.29940959 63.14839012 -18.18983364 70.72777462 Z " fill="#E61D28" transform="translate(174.75233364105225,-0.6652746200561523)"/>
<path d="M0 0 C3.13349687 1.39038759 5.25516164 3.0074226 7.66998291 5.42947388 C8.38227051 6.13901215 9.09455811 6.84855042 9.82843018 7.57958984 C10.59951111 8.35786133 11.37059204 9.13613281 12.16503906 9.93798828 C13.39486511 11.16737625 13.39486511 11.16737625 14.64953613 12.42160034 C17.35966624 15.13312432 20.06264248 17.85166492 22.765625 20.5703125 C24.64277429 22.4511917 26.520312 24.33167487 28.39837646 26.2116394 C32.83634406 30.65582026 37.26918925 35.10507422 41.70021415 39.55617607 C46.74583409 44.62415976 51.79714216 49.68645771 56.84893465 54.74828744 C67.23896097 65.15921229 77.62183072 75.57725506 88 86 C86.65625644 88.99020545 85.17115282 91.07832872 82.85646057 93.39077759 C81.887005 94.36652489 81.887005 94.36652489 80.89796448 95.36198425 C80.1898613 96.06446793 79.48175812 96.7669516 78.75219727 97.49072266 C78.00569916 98.23911911 77.25920105 98.98751556 76.49008179 99.7585907 C74.02038347 102.23199478 71.54355593 104.69812283 69.06640625 107.1640625 C67.34972808 108.87954867 65.63341929 110.59540454 63.91746521 112.31161499 C60.32005137 115.90746431 56.71930088 119.4999272 53.1159668 123.08984375 C48.49262541 127.69618906 43.87590039 132.30909604 39.26142979 136.92432594 C35.71790467 140.4675794 32.17178117 144.00822246 28.62476921 147.54798508 C26.92128423 149.24828361 25.21840801 150.94919226 23.51614571 152.65071487 C21.13900216 155.025695 18.75859744 157.39735544 16.37719727 159.76806641 C15.67111832 160.47459854 14.96503937 161.18113068 14.23756409 161.90907288 C13.58844055 162.55393143 12.93931702 163.19878998 12.27052307 163.8631897 C11.70806161 164.42397532 11.14560015 164.98476093 10.5660944 165.56254005 C8.02390386 167.89592244 6.22890383 168.95960521 2.8125 169.5625 C-1.21081752 168.96889578 -1.92150094 168.52975404 -4.77516174 165.9198761 C-5.82465846 164.96343169 -5.82465846 164.96343169 -6.89535713 163.98766518 C-10.11636739 160.94568118 -13.28217045 157.85721711 -16.40991211 154.71948242 C-17.10197754 154.02916931 -17.79404297 153.3388562 -18.50708008 152.62762451 C-20.76633596 150.37272737 -23.02196499 148.11424333 -25.27734375 145.85546875 C-26.85520576 144.27828104 -28.43321613 142.70124174 -30.0113678 141.12434387 C-33.30355761 137.83362252 -36.59394621 134.5411136 -39.88305664 131.24731445 C-44.10545682 127.01918926 -48.3323685 122.79560713 -52.56061459 118.57332897 C-55.81280405 115.32474415 -59.06261907 112.07379244 -62.31170845 108.82210732 C-63.87035219 107.26279549 -65.42974186 105.70422892 -66.98988152 104.1464138 C-69.16096099 101.97786227 -71.32882902 99.80615144 -73.49584961 97.63354492 C-74.14358841 96.98783035 -74.79132721 96.34211578 -75.45869446 95.67683411 C-80.8224365 90.28733536 -80.8224365 90.28733536 -81.5 85.375 C-81.43857495 81.68256338 -80.56866261 80.04370094 -78.08178711 77.34790039 C-77.12403885 76.30558762 -77.12403885 76.30558762 -76.14694214 75.24221802 C-72.2104707 71.13105591 -68.22079432 67.07870629 -64.19140625 63.05859375 C-62.80307838 61.6688308 -62.80307838 61.6688308 -61.38670349 60.25099182 C-59.43935145 58.30217639 -57.49023087 56.35515263 -55.53979492 54.40942383 C-53.06103605 51.93636139 -50.58679569 49.45883467 -48.1138773 46.97993374 C-45.72549855 44.58703799 -43.3332792 42.19799682 -40.94140625 39.80859375 C-40.0640834 38.92924667 -39.18676056 38.0498996 -38.28285217 37.14390564 C-33.91088902 32.78839375 -29.47279853 28.59208708 -24.79356384 24.56895447 C-22.14048802 22.24812536 -19.67333241 19.78511271 -17.1875 17.28515625 C-16.68831055 16.78455185 -16.18912109 16.28394745 -15.67480469 15.76817322 C-14.1141263 14.20199236 -12.55700153 12.63233529 -11 11.0625 C-9.92862113 9.98609346 -8.85700818 8.90991986 -7.78515625 7.83398438 C-5.18740362 5.22533255 -2.59282038 2.61355529 0 0 Z M-46.375 73.5 C-50.27853647 79.50544072 -50.75899956 84.98171834 -50 92 C-48.37112136 98.38432969 -44.66125587 101.45088887 -39.21875 104.87109375 C-33.7201071 107.66881875 -27.88330215 107.77867274 -22 106 C-16.23770643 103.64575554 -12.65091253 98.79937343 -9.5625 93.5625 C-7.90126621 85.99465717 -8.83575897 79.5987204 -13 73 C-16.76241422 68.76341851 -21.22525769 66.36358692 -26.83203125 65.62890625 C-35.54264496 65.43482967 -40.38782931 67.19771506 -46.375 73.5 Z M16.44140625 72.34375 C12.2616633 77.14648986 11.43227417 82.36171585 11.65625 88.51171875 C12.56927321 95.12076174 15.96115664 99.76365603 21.15234375 103.80859375 C26.2291418 107.08221617 31.0799226 107.33783795 36.8671875 106.46484375 C43.501607 105.01888053 47.16474021 101.32410288 51 96 C53.73461924 91.40086764 53.62704101 86.19888434 53 81 C51.21633752 74.94409207 47.4993392 70.12069711 42 67 C32.2542723 63.53518002 23.93725373 65.24791295 16.44140625 72.34375 Z " fill="#0074AD" transform="translate(81,87)"/>
<path d="M0 0 C1.32 0 2.64 0 4 0 C4.66 1.65 5.32 3.3 6 5 C7.93798263 2.22739701 7.93798263 2.22739701 9 0 C10.32 0 11.64 0 13 0 C13 4.29 13 8.58 13 13 C11.68 12.67 10.36 12.34 9 12 C6.90178785 12.39938767 6.90178785 12.39938767 5 13 C3.33333333 13 1.66666667 13 0 13 C0 8.71 0 4.42 0 0 Z " fill="#0075B0" transform="translate(124,243)"/>
<path d="M0 0 C3.63 0 7.26 0 11 0 C11 4.29 11 8.58 11 13 C8.69 13 6.38 13 4 13 C4 9.7 4 6.4 4 3 C2.68 3 1.36 3 0 3 C0 2.01 0 1.02 0 0 Z " fill="#0075AF" transform="translate(112,243)"/>
<path d="M0 0 C0.66 0.33 1.32 0.66 2 1 C-3.61 6.61 -9.22 12.22 -15 18 C-15.66 17.67 -16.32 17.34 -17 17 C-11.39 11.39 -5.78 5.78 0 0 Z " fill="#E51D28" transform="translate(131,34)"/>
<path d="M0 0 C5.66129431 4.69766975 10.85228904 9.74723372 16 15 C15.67 15.66 15.34 16.32 15 17 C12.49195282 14.54976242 9.9949924 12.08852402 7.5 9.625 C6.78457031 8.92632812 6.06914062 8.22765625 5.33203125 7.5078125 C4.65527344 6.8375 3.97851562 6.1671875 3.28125 5.4765625 C2.65283203 4.85861816 2.02441406 4.24067383 1.37695312 3.60400391 C0 2 0 2 0 0 Z " fill="#E51D28" transform="translate(235,56)"/>
<path d="M0 0 C3.90285767 1.58667578 6.33520982 4.13350481 9.25 7.125 C10.14203125 8.03507812 11.0340625 8.94515625 11.953125 9.8828125 C12.62859375 10.58148438 13.3040625 11.28015625 14 12 C13.67 12.66 13.34 13.32 13 14 C10.83031809 11.85714108 8.66416525 9.71091768 6.5 7.5625 C5.87996094 6.95083984 5.25992188 6.33917969 4.62109375 5.70898438 C4.03457031 5.12568359 3.44804688 4.54238281 2.84375 3.94140625 C2.02680664 3.13231812 2.02680664 3.13231812 1.19335938 2.30688477 C0 1 0 1 0 0 Z " fill="#E51D28" transform="translate(87,84)"/>
<path d="M0 0 C0.33 0 0.66 0 1 0 C1 4.29 1 8.58 1 13 C0.67 13 0.34 13 0 13 C0 8.71 0 4.42 0 0 Z " fill="#0074AC" transform="translate(138,243)"/>
<path d="M0 0 C0.99 0 1.98 0 3 0 C3 2.97 3 5.94 3 9 C2.67 9 2.34 9 2 9 C2 6.36 2 3.72 2 1 C1.34 0.67 0.68 0.34 0 0 Z " fill="#0073AD" transform="translate(112,247)"/>
<path d="M0 0 C3.63 0 7.26 0 11 0 C11 0.33 11 0.66 11 1 C7.37 1 3.74 1 0 1 C0 0.67 0 0.34 0 0 Z " fill="#0073AC" transform="translate(112,241)"/>
<path d="M0 0 C0.33 0 0.66 0 1 0 C1 3.3 1 6.6 1 10 C0.67 10 0.34 10 0 10 C0 6.7 0 3.4 0 0 Z " fill="#0073AC" transform="translate(132,168)"/>
<path d="M0 0 C0.33 0 0.66 0 1 0 C1 3.3 1 6.6 1 10 C0.67 10 0.34 10 0 10 C0 6.7 0 3.4 0 0 Z " fill="#0073AC" transform="translate(32,168)"/>
<path d="M0 0 C2.97 0 5.94 0 9 0 C9 0.33 9 0.66 9 1 C6.03 1 3.06 1 0 1 C0 0.67 0 0.34 0 0 Z " fill="#E51D28" transform="translate(169,101)"/>
<path d="M0 0 C0.33 0 0.66 0 1 0 C1 2.97 1 5.94 1 9 C0.67 9 0.34 9 0 9 C0 6.03 0 3.06 0 0 Z " fill="#E51D28" transform="translate(154,78)"/>
<path d="M0 0 C0.33 0 0.66 0 1 0 C1 2.97 1 5.94 1 9 C0.67 9 0.34 9 0 9 C0 6.03 0 3.06 0 0 Z " fill="#E51D28" transform="translate(192,78)"/>
<path d="M0 0 C2.97 0 5.94 0 9 0 C9 0.33 9 0.66 9 1 C6.03 1 3.06 1 0 1 C0 0.67 0 0.34 0 0 Z " fill="#E51D28" transform="translate(169,63)"/>
<path d="M0 0 C0.33 0 0.66 0 1 0 C1 2.64 1 5.28 1 8 C0.67 8 0.34 8 0 8 C0 5.36 0 2.72 0 0 Z " fill="#0073AC" transform="translate(94,169)"/>
<path d="M0 0 C0.33 0 0.66 0 1 0 C1 2.31 1 4.62 1 7 C0.67 7 0.34 7 0 7 C0 4.69 0 2.38 0 0 Z " fill="#0074AC" transform="translate(70,170)"/>
<path d="M0 0 C1.32 1.32 2.64 2.64 4 4 C2.68 3.34 1.36 2.68 0 2 C0 1.34 0 0.68 0 0 Z " fill="#E51D28" transform="translate(158,94)"/>
<path d="M0 0 C1.98 0 3.96 0 6 0 C6 0.33 6 0.66 6 1 C4.02 1 2.04 1 0 1 C0 0.67 0 0.34 0 0 Z " fill="#0073AC" transform="translate(48,192)"/>
<path d="M0 0 C1.65 0 3.3 0 5 0 C5 0.33 5 0.66 5 1 C3.35 1 1.7 1 0 1 C0 0.67 0 0.34 0 0 Z " fill="#0073AC" transform="translate(52,154)"/>
<path d="M0 0 C4 1 4 1 4 1 Z " fill="#0073AC" transform="translate(133,241)"/>
<path d="M0 0 C4 1 4 1 4 1 Z " fill="#0073AC" transform="translate(124,241)"/>
<path d="M0 0 C4 1 4 1 4 1 Z " fill="#0073AC" transform="translate(107,154)"/>
<path d="M0 0 C4 1 4 1 4 1 Z " fill="#0074AC" transform="translate(46,154)"/>
<path d="" fill="#0073AC" transform="translate(0,0)"/>
<path d="" fill="#0073AC" transform="translate(0,0)"/>
<path d="M0 0 C3 1 3 1 3 1 Z " fill="#0073AC" transform="translate(117,191)"/>
<path d="M0 0 C3 1 3 1 3 1 Z " fill="#0074AC" transform="translate(107,191)"/>
<path d="M0 0 C3 1 3 1 3 1 Z " fill="#0073AC" transform="translate(56,191)"/>
<path d="M0 0 C3 1 3 1 3 1 Z " fill="#0074AC" transform="translate(44,191)"/>
<path d="" fill="#0073AC" transform="translate(0,0)"/>
<path d="" fill="#0073AC" transform="translate(0,0)"/>
<path d="" fill="#0073AC" transform="translate(0,0)"/>
<path d="" fill="#0073AC" transform="translate(0,0)"/>
<path d="M0 0 C3 1 3 1 3 1 Z " fill="#0073AC" transform="translate(117,154)"/>
<path d="M0 0 C0.33 0.66 0.66 1.32 1 2 C0.34 1.67 -0.32 1.34 -1 1 C-0.67 0.67 -0.34 0.34 0 0 Z " fill="#E51D28" transform="translate(187,95)"/>
<path d="" fill="#E51D28" transform="translate(0,0)"/>
<path d="" fill="#E51E28" transform="translate(0,0)"/>
<path d="M0 0 C0.66 0 1.32 0 2 0 C1.67 0.66 1.34 1.32 1 2 C0.67 1.34 0.34 0.68 0 0 Z " fill="#E51E28" transform="translate(186,68)"/>
<path d="M0 0 C3 1 3 1 3 1 Z " fill="#E51E29" transform="translate(165,64)"/>
<path d="" fill="#0074AD" transform="translate(0,0)"/>
<path d="" fill="#0073AD" transform="translate(0,0)"/>
<path d="M0 0 C2 1 2 1 2 1 Z " fill="#0073AC" transform="translate(121,190)"/>
<path d="M0 0 C2 1 2 1 2 1 Z " fill="#0074AC" transform="translate(104,190)"/>
<path d="M0 0 C2 1 2 1 2 1 Z " fill="#0073AC" transform="translate(59,190)"/>
<path d="M0 0 C2 1 2 1 2 1 Z " fill="#0073AC" transform="translate(42,190)"/>
<path d="M0 0 C2 1 2 1 2 1 Z " fill="#0073AC" transform="translate(123,189)"/>
<path d="M0 0 C2 1 2 1 2 1 Z " fill="#0073AC" transform="translate(61,189)"/>
<path d="M0 0 C2 1 2 1 2 1 Z " fill="#0073AC" transform="translate(40,189)"/>
<path d="" fill="#0073AC" transform="translate(0,0)"/>
<path d="" fill="#0073AC" transform="translate(0,0)"/>
<path d="" fill="#0073AC" transform="translate(0,0)"/>
<path d="" fill="#0074AC" transform="translate(0,0)"/>
<path d="" fill="#0073AC" transform="translate(0,0)"/>
<path d="" fill="#0074AC" transform="translate(0,0)"/>
<path d="" fill="#0073AD" transform="translate(0,0)"/>
<path d="" fill="#0074AD" transform="translate(0,0)"/>
<path d="M0 0 C2 1 2 1 2 1 Z " fill="#E61D28" transform="translate(173,170)"/>
<path d="" fill="#0073AD" transform="translate(0,0)"/>
<path d="" fill="#0073AD" transform="translate(0,0)"/>
<path d="" fill="#0073AC" transform="translate(0,0)"/>
<path d="" fill="#0074AC" transform="translate(0,0)"/>
<path d="" fill="#0074AC" transform="translate(0,0)"/>
<path d="" fill="#0073AC" transform="translate(0,0)"/>
<path d="" fill="#0074AD" transform="translate(0,0)"/>
<path d="" fill="#0073AB" transform="translate(0,0)"/>
<path d="" fill="#0073AD" transform="translate(0,0)"/>
<path d="" fill="#0073AC" transform="translate(0,0)"/>
<path d="M0 0 C2 1 2 1 2 1 Z " fill="#0073AC" transform="translate(63,158)"/>
<path d="M0 0 C2 1 2 1 2 1 Z " fill="#0073AC" transform="translate(101,157)"/>
<path d="M0 0 C2 1 2 1 2 1 Z " fill="#0073AC" transform="translate(39,157)"/>
<path d="M0 0 C2 1 2 1 2 1 Z " fill="#0073AD" transform="translate(60,156)"/>
<path d="M0 0 C2 1 2 1 2 1 Z " fill="#0073AC" transform="translate(121,155)"/>
<path d="M0 0 C2 1 2 1 2 1 Z " fill="#0073AC" transform="translate(105,155)"/>
<path d="M0 0 C2 1 2 1 2 1 Z " fill="#0073AC" transform="translate(58,155)"/>
<path d="M0 0 C2 1 2 1 2 1 Z " fill="#0074AC" transform="translate(43,155)"/>
<path d="M0 0 C2 1 2 1 2 1 Z " fill="#E51D29" transform="translate(179,100)"/>
<path d="M0 0 C2 1 2 1 2 1 Z " fill="#E51D28" transform="translate(166,100)"/>
<path d="M0 0 C2 1 2 1 2 1 Z " fill="#E51E29" transform="translate(182,99)"/>
<path d="M0 0 C2 1 2 1 2 1 Z " fill="#E51D28" transform="translate(163,99)"/>
<path d="" fill="#E51D28" transform="translate(0,0)"/>
<path d="" fill="#E51D28" transform="translate(0,0)"/>
<path d="M0 0 C2 1 2 1 2 1 Z " fill="#0073AC" transform="translate(81,85)"/>
<path d="" fill="#E51D28" transform="translate(0,0)"/>
<path d="" fill="#E41D28" transform="translate(0,0)"/>
<path d="" fill="#E51D28" transform="translate(0,0)"/>
<path d="" fill="#E51D28" transform="translate(0,0)"/>
<path d="M0 0 C2 1 2 1 2 1 Z " fill="#E51D28" transform="translate(160,67)"/>
<path d="M0 0 C2 1 2 1 2 1 Z " fill="#E51D29" transform="translate(182,65)"/>
<path d="M0 0 C2 1 2 1 2 1 Z " fill="#E61E29" transform="translate(163,65)"/>
<path d="M0 0 C2 1 2 1 2 1 Z " fill="#E51D28" transform="translate(179,64)"/>
<path d="" fill="#0073AC" transform="translate(0,0)"/>
<path d="" fill="#0074AC" transform="translate(0,0)"/>
<path d="" fill="#0074AC" transform="translate(0,0)"/>
<path d="" fill="#0074AC" transform="translate(0,0)"/>
<path d="" fill="#0074AC" transform="translate(0,0)"/>
<path d="" fill="#0073AD" transform="translate(0,0)"/>
<path d="" fill="#0074AD" transform="translate(0,0)"/>
<path d="" fill="#0074AD" transform="translate(0,0)"/>
<path d="" fill="#0074AC" transform="translate(0,0)"/>
<path d="" fill="#0073AD" transform="translate(0,0)"/>
<path d="" fill="#0073AC" transform="translate(0,0)"/>
<path d="" fill="#0073AD" transform="translate(0,0)"/>
<path d="" fill="#0074AD" transform="translate(0,0)"/>
<path d="" fill="#0073AD" transform="translate(0,0)"/>
<path d="" fill="#0074AC" transform="translate(0,0)"/>
<path d="" fill="#0074AD" transform="translate(0,0)"/>
<path d="" fill="#0074AC" transform="translate(0,0)"/>
<path d="" fill="#0074AC" transform="translate(0,0)"/>
<path d="" fill="#0073AC" transform="translate(0,0)"/>
<path d="" fill="#0073AD" transform="translate(0,0)"/>
<path d="" fill="#0074AD" transform="translate(0,0)"/>
<path d="" fill="#0073AC" transform="translate(0,0)"/>
<path d="" fill="#0074AD" transform="translate(0,0)"/>
<path d="" fill="#0074AC" transform="translate(0,0)"/>
<path d="" fill="#0073AC" transform="translate(0,0)"/>
<path d="" fill="#0073AC" transform="translate(0,0)"/>
<path d="" fill="#0074AC" transform="translate(0,0)"/>
<path d="" fill="#0074AD" transform="translate(0,0)"/>
<path d="" fill="#0073AD" transform="translate(0,0)"/>
<path d="" fill="#0073AC" transform="translate(0,0)"/>
<path d="" fill="#0073AC" transform="translate(0,0)"/>
<path d="" fill="#0074AC" transform="translate(0,0)"/>
<path d="" fill="#0073AC" transform="translate(0,0)"/>
<path d="" fill="#0074AC" transform="translate(0,0)"/>
<path d="" fill="#0073AC" transform="translate(0,0)"/>
<path d="" fill="#0073AD" transform="translate(0,0)"/>
<path d="" fill="#0073AC" transform="translate(0,0)"/>
<path d="" fill="#0072AD" transform="translate(0,0)"/>
<path d="" fill="#0073AC" transform="translate(0,0)"/>
<path d="" fill="#0073AC" transform="translate(0,0)"/>
<path d="" fill="#0073AC" transform="translate(0,0)"/>
<path d="" fill="#0074AC" transform="translate(0,0)"/>
<path d="" fill="#0074AD" transform="translate(0,0)"/>
<path d="" fill="#0074AD" transform="translate(0,0)"/>
<path d="" fill="#0074AD" transform="translate(0,0)"/>
<path d="" fill="#0073AD" transform="translate(0,0)"/>
<path d="" fill="#0074AD" transform="translate(0,0)"/>
<path d="" fill="#0073AD" transform="translate(0,0)"/>
<path d="" fill="#0073AC" transform="translate(0,0)"/>
<path d="" fill="#0074AD" transform="translate(0,0)"/>
<path d="" fill="#0073AC" transform="translate(0,0)"/>
<path d="" fill="#0074AC" transform="translate(0,0)"/>
<path d="" fill="#0073AD" transform="translate(0,0)"/>
<path d="" fill="#0073AC" transform="translate(0,0)"/>
<path d="" fill="#0074AD" transform="translate(0,0)"/>
<path d="" fill="#0073AC" transform="translate(0,0)"/>
<path d="" fill="#0073AD" transform="translate(0,0)"/>
<path d="" fill="#0074AC" transform="translate(0,0)"/>
<path d="" fill="#0073AC" transform="translate(0,0)"/>
<path d="" fill="#0074AD" transform="translate(0,0)"/>
<path d="" fill="#0074AC" transform="translate(0,0)"/>
<path d="" fill="#0073AD" transform="translate(0,0)"/>
<path d="" fill="#0073AC" transform="translate(0,0)"/>
<path d="" fill="#0073AD" transform="translate(0,0)"/>
<path d="" fill="#0073AD" transform="translate(0,0)"/>
<path d="" fill="#0074AD" transform="translate(0,0)"/>
<path d="" fill="#0073AC" transform="translate(0,0)"/>
<path d="" fill="#0074AD" transform="translate(0,0)"/>
<path d="" fill="#0074AC" transform="translate(0,0)"/>
<path d="" fill="#0074AC" transform="translate(0,0)"/>
<path d="" fill="#0073AD" transform="translate(0,0)"/>
<path d="" fill="#0074AC" transform="translate(0,0)"/>
<path d="" fill="#0073AD" transform="translate(0,0)"/>
<path d="" fill="#0074AD" transform="translate(0,0)"/>
<path d="" fill="#0074AD" transform="translate(0,0)"/>
<path d="" fill="#0074AC" transform="translate(0,0)"/>
<path d="" fill="#0074AC" transform="translate(0,0)"/>
<path d="" fill="#0074AC" transform="translate(0,0)"/>
<path d="" fill="#0074AC" transform="translate(0,0)"/>
<path d="" fill="#0074AC" transform="translate(0,0)"/>
<path d="" fill="#0073AD" transform="translate(0,0)"/>
<path d="" fill="#0074AC" transform="translate(0,0)"/>
<path d="" fill="#0074AD" transform="translate(0,0)"/>
<path d="" fill="#0074AC" transform="translate(0,0)"/>
<path d="" fill="#0073AD" transform="translate(0,0)"/>
<path d="" fill="#0074AC" transform="translate(0,0)"/>
<path d="" fill="#0074AD" transform="translate(0,0)"/>
<path d="" fill="#0073AC" transform="translate(0,0)"/>
<path d="" fill="#0073AC" transform="translate(0,0)"/>
<path d="" fill="#0074AC" transform="translate(0,0)"/>
<path d="" fill="#0073AC" transform="translate(0,0)"/>
<path d="" fill="#0074AC" transform="translate(0,0)"/>
<path d="" fill="#0074AD" transform="translate(0,0)"/>
<path d="" fill="#0073AD" transform="translate(0,0)"/>
<path d="" fill="#0074AC" transform="translate(0,0)"/>
<path d="" fill="#0073AC" transform="translate(0,0)"/>
<path d="" fill="#0074AC" transform="translate(0,0)"/>
<path d="" fill="#0073AC" transform="translate(0,0)"/>
<path d="" fill="#0073AD" transform="translate(0,0)"/>
<path d="" fill="#0074AD" transform="translate(0,0)"/>
<path d="" fill="#0073AD" transform="translate(0,0)"/>
<path d="" fill="#0074AD" transform="translate(0,0)"/>
<path d="" fill="#0073AC" transform="translate(0,0)"/>
<path d="" fill="#0074AD" transform="translate(0,0)"/>
<path d="" fill="#0074AD" transform="translate(0,0)"/>
<path d="" fill="#0074AD" transform="translate(0,0)"/>
<path d="" fill="#0074AD" transform="translate(0,0)"/>
<path d="" fill="#0074AC" transform="translate(0,0)"/>
<path d="" fill="#0074AD" transform="translate(0,0)"/>
<path d="" fill="#0074AC" transform="translate(0,0)"/>
<path d="" fill="#0073AC" transform="translate(0,0)"/>
<path d="" fill="#0073AD" transform="translate(0,0)"/>
<path d="" fill="#0074AD" transform="translate(0,0)"/>
<path d="" fill="#0073AD" transform="translate(0,0)"/>
<path d="" fill="#0074AD" transform="translate(0,0)"/>
<path d="" fill="#0073AC" transform="translate(0,0)"/>
<path d="" fill="#0074AC" transform="translate(0,0)"/>
<path d="" fill="#0073AC" transform="translate(0,0)"/>
<path d="" fill="#0073AC" transform="translate(0,0)"/>
<path d="" fill="#0074AD" transform="translate(0,0)"/>
<path d="" fill="#0073AC" transform="translate(0,0)"/>
<path d="" fill="#0074AD" transform="translate(0,0)"/>
<path d="" fill="#0074AC" transform="translate(0,0)"/>
<path d="" fill="#0073AD" transform="translate(0,0)"/>
<path d="" fill="#0073AD" transform="translate(0,0)"/>
<path d="" fill="#0074AC" transform="translate(0,0)"/>
<path d="" fill="#0074AC" transform="translate(0,0)"/>
<path d="" fill="#0074AC" transform="translate(0,0)"/>
<path d="" fill="#0074AD" transform="translate(0,0)"/>
<path d="" fill="#0073AC" transform="translate(0,0)"/>
<path d="" fill="#0074AD" transform="translate(0,0)"/>
<path d="" fill="#0073AC" transform="translate(0,0)"/>
<path d="" fill="#0073AD" transform="translate(0,0)"/>
<path d="" fill="#0074AD" transform="translate(0,0)"/>
<path d="" fill="#0074AD" transform="translate(0,0)"/>
<path d="" fill="#0073AC" transform="translate(0,0)"/>
<path d="" fill="#0074AC" transform="translate(0,0)"/>
<path d="" fill="#0074AD" transform="translate(0,0)"/>
<path d="" fill="#0074AD" transform="translate(0,0)"/>
<path d="" fill="#0073AC" transform="translate(0,0)"/>
<path d="" fill="#0074AC" transform="translate(0,0)"/>
<path d="" fill="#0074AD" transform="translate(0,0)"/>
<path d="" fill="#0073AD" transform="translate(0,0)"/>
<path d="" fill="#0073AD" transform="translate(0,0)"/>
<path d="" fill="#0074AD" transform="translate(0,0)"/>
<path d="" fill="#0073AC" transform="translate(0,0)"/>
<path d="" fill="#0074AD" transform="translate(0,0)"/>
<path d="" fill="#0074AC" transform="translate(0,0)"/>
<path d="" fill="#0074AC" transform="translate(0,0)"/>
<path d="" fill="#0074AD" transform="translate(0,0)"/>
<path d="" fill="#0074AC" transform="translate(0,0)"/>
<path d="" fill="#0074AD" transform="translate(0,0)"/>
<path d="" fill="#0073AC" transform="translate(0,0)"/>
<path d="" fill="#0074AC" transform="translate(0,0)"/>
<path d="" fill="#0073AD" transform="translate(0,0)"/>
<path d="" fill="#0073AD" transform="translate(0,0)"/>
<path d="" fill="#0074AC" transform="translate(0,0)"/>
<path d="" fill="#0074AC" transform="translate(0,0)"/>
<path d="" fill="#0073AD" transform="translate(0,0)"/>
<path d="" fill="#0074AC" transform="translate(0,0)"/>
<path d="" fill="#0073AD" transform="translate(0,0)"/>
<path d="" fill="#0074AD" transform="translate(0,0)"/>
<path d="" fill="#0073AC" transform="translate(0,0)"/>
<path d="" fill="#0074AD" transform="translate(0,0)"/>
<path d="" fill="#0073AD" transform="translate(0,0)"/>
<path d="" fill="#0073AD" transform="translate(0,0)"/>
<path d="" fill="#0073AC" transform="translate(0,0)"/>
<path d="" fill="#0074AC" transform="translate(0,0)"/>
<path d="" fill="#0074AC" transform="translate(0,0)"/>
<path d="" fill="#0074AC" transform="translate(0,0)"/>
<path d="" fill="#0074AC" transform="translate(0,0)"/>
<path d="" fill="#0074AD" transform="translate(0,0)"/>
<path d="" fill="#0074AC" transform="translate(0,0)"/>
<path d="" fill="#0074AD" transform="translate(0,0)"/>
<path d="" fill="#0074AD" transform="translate(0,0)"/>
<path d="" fill="#0074AD" transform="translate(0,0)"/>
<path d="" fill="#0074AC" transform="translate(0,0)"/>
<path d="" fill="#0073AD" transform="translate(0,0)"/>
<path d="" fill="#0073AC" transform="translate(0,0)"/>
<path d="" fill="#0074AC" transform="translate(0,0)"/>
<path d="" fill="#0074AC" transform="translate(0,0)"/>
<path d="" fill="#0074AD" transform="translate(0,0)"/>
<path d="" fill="#0073AC" transform="translate(0,0)"/>
<path d="" fill="#0073AC" transform="translate(0,0)"/>
<path d="" fill="#0073AC" transform="translate(0,0)"/>
<path d="" fill="#0074AD" transform="translate(0,0)"/>
<path d="" fill="#E61E28" transform="translate(0,0)"/>
<path d="" fill="#E51E28" transform="translate(0,0)"/>
<path d="" fill="#0073AC" transform="translate(0,0)"/>
<path d="" fill="#E61E28" transform="translate(0,0)"/>
<path d="" fill="#E51D28" transform="translate(0,0)"/>
<path d="" fill="#0073AC" transform="translate(0,0)"/>
<path d="" fill="#E61E29" transform="translate(0,0)"/>
<path d="" fill="#E51D28" transform="translate(0,0)"/>
<path d="" fill="#0074AC" transform="translate(0,0)"/>
<path d="" fill="#E61D29" transform="translate(0,0)"/>
<path d="" fill="#E61D28" transform="translate(0,0)"/>
<path d="" fill="#0074AC" transform="translate(0,0)"/>
<path d="" fill="#E51D28" transform="translate(0,0)"/>
<path d="" fill="#E61D28" transform="translate(0,0)"/>
<path d="" fill="#0074AC" transform="translate(0,0)"/>
<path d="" fill="#0074AC" transform="translate(0,0)"/>
<path d="" fill="#E51E28" transform="translate(0,0)"/>
<path d="" fill="#E61E28" transform="translate(0,0)"/>
<path d="" fill="#0073AD" transform="translate(0,0)"/>
<path d="" fill="#0074AC" transform="translate(0,0)"/>
<path d="" fill="#E51D29" transform="translate(0,0)"/>
<path d="" fill="#E61D29" transform="translate(0,0)"/>
<path d="" fill="#0074AD" transform="translate(0,0)"/>
<path d="" fill="#0073AD" transform="translate(0,0)"/>
<path d="" fill="#0073AC" transform="translate(0,0)"/>
<path d="" fill="#E51E29" transform="translate(0,0)"/>
<path d="" fill="#E51E29" transform="translate(0,0)"/>
<path d="" fill="#0073AC" transform="translate(0,0)"/>
<path d="" fill="#0074AD" transform="translate(0,0)"/>
<path d="" fill="#0073AC" transform="translate(0,0)"/>
<path d="" fill="#E51E28" transform="translate(0,0)"/>
<path d="" fill="#E51D29" transform="translate(0,0)"/>
<path d="" fill="#0074AD" transform="translate(0,0)"/>
<path d="" fill="#0073AD" transform="translate(0,0)"/>
<path d="" fill="#E51D29" transform="translate(0,0)"/>
<path d="" fill="#E61E29" transform="translate(0,0)"/>
<path d="" fill="#0073AD" transform="translate(0,0)"/>
<path d="" fill="#0074AC" transform="translate(0,0)"/>
<path d="" fill="#0074AC" transform="translate(0,0)"/>
<path d="" fill="#0074AD" transform="translate(0,0)"/>
<path d="" fill="#0073AC" transform="translate(0,0)"/>
<path d="" fill="#E61D28" transform="translate(0,0)"/>
<path d="" fill="#E61E28" transform="translate(0,0)"/>
<path d="" fill="#0074AD" transform="translate(0,0)"/>
<path d="" fill="#0074AD" transform="translate(0,0)"/>
<path d="" fill="#0073AC" transform="translate(0,0)"/>
<path d="" fill="#0073AC" transform="translate(0,0)"/>
<path d="" fill="#0074AD" transform="translate(0,0)"/>
<path d="" fill="#0073AD" transform="translate(0,0)"/>
<path d="" fill="#E61E28" transform="translate(0,0)"/>
<path d="" fill="#E61E28" transform="translate(0,0)"/>
<path d="" fill="#0074AD" transform="translate(0,0)"/>
<path d="" fill="#0074AD" transform="translate(0,0)"/>
<path d="" fill="#0073AC" transform="translate(0,0)"/>
<path d="" fill="#0074AC" transform="translate(0,0)"/>
<path d="" fill="#0073AD" transform="translate(0,0)"/>
<path d="" fill="#E51D29" transform="translate(0,0)"/>
<path d="" fill="#E61E28" transform="translate(0,0)"/>
<path d="" fill="#0074AD" transform="translate(0,0)"/>
<path d="" fill="#0074AC" transform="translate(0,0)"/>
<path d="" fill="#0074AD" transform="translate(0,0)"/>
<path d="" fill="#0073AD" transform="translate(0,0)"/>
<path d="" fill="#E61E29" transform="translate(0,0)"/>
<path d="" fill="#E61D28" transform="translate(0,0)"/>
<path d="" fill="#0074AC" transform="translate(0,0)"/>
<path d="" fill="#0074AC" transform="translate(0,0)"/>
<path d="" fill="#0074AC" transform="translate(0,0)"/>
<path d="" fill="#0074AC" transform="translate(0,0)"/>
<path d="" fill="#0074AD" transform="translate(0,0)"/>
<path d="" fill="#E61E28" transform="translate(0,0)"/>
<path d="" fill="#E61E28" transform="translate(0,0)"/>
<path d="" fill="#0074AC" transform="translate(0,0)"/>
<path d="" fill="#0074AD" transform="translate(0,0)"/>
<path d="" fill="#E51D29" transform="translate(0,0)"/>
<path d="" fill="#E51E28" transform="translate(0,0)"/>
<path d="" fill="#0074AC" transform="translate(0,0)"/>
<path d="" fill="#0074AC" transform="translate(0,0)"/>
<path d="" fill="#E51E29" transform="translate(0,0)"/>
<path d="" fill="#E51E28" transform="translate(0,0)"/>
<path d="" fill="#0073AD" transform="translate(0,0)"/>
<path d="" fill="#0074AD" transform="translate(0,0)"/>
<path d="" fill="#E51D28" transform="translate(0,0)"/>
<path d="" fill="#E51E28" transform="translate(0,0)"/>
<path d="" fill="#0073AC" transform="translate(0,0)"/>
<path d="" fill="#0074AD" transform="translate(0,0)"/>
<path d="" fill="#E61E29" transform="translate(0,0)"/>
<path d="" fill="#E51D29" transform="translate(0,0)"/>
<path d="" fill="#0073AD" transform="translate(0,0)"/>
<path d="" fill="#0073AD" transform="translate(0,0)"/>
<path d="" fill="#E61E28" transform="translate(0,0)"/>
<path d="" fill="#E61D29" transform="translate(0,0)"/>
<path d="" fill="#0073AC" transform="translate(0,0)"/>
<path d="" fill="#0073AD" transform="translate(0,0)"/>
<path d="" fill="#E51D28" transform="translate(0,0)"/>
<path d="" fill="#E51D29" transform="translate(0,0)"/>
<path d="" fill="#0074AD" transform="translate(0,0)"/>
<path d="" fill="#0074AC" transform="translate(0,0)"/>
<path d="" fill="#E51E29" transform="translate(0,0)"/>
<path d="" fill="#E61E29" transform="translate(0,0)"/>
<path d="" fill="#0073AC" transform="translate(0,0)"/>
<path d="" fill="#0074AD" transform="translate(0,0)"/>
<path d="" fill="#E51E29" transform="translate(0,0)"/>
<path d="" fill="#E61E28" transform="translate(0,0)"/>
<path d="" fill="#0073AC" transform="translate(0,0)"/>
<path d="" fill="#0073AD" transform="translate(0,0)"/>
<path d="" fill="#E51E29" transform="translate(0,0)"/>
<path d="" fill="#E61E28" transform="translate(0,0)"/>
<path d="" fill="#0074AC" transform="translate(0,0)"/>
<path d="" fill="#0074AC" transform="translate(0,0)"/>
<path d="" fill="#E51E29" transform="translate(0,0)"/>
<path d="" fill="#E61D29" transform="translate(0,0)"/>
<path d="" fill="#0074AC" transform="translate(0,0)"/>
<path d="" fill="#0074AD" transform="translate(0,0)"/>
<path d="" fill="#E51E29" transform="translate(0,0)"/>
<path d="" fill="#E61D28" transform="translate(0,0)"/>
<path d="" fill="#0074AD" transform="translate(0,0)"/>
<path d="" fill="#0074AC" transform="translate(0,0)"/>
<path d="" fill="#E51D29" transform="translate(0,0)"/>
<path d="" fill="#E51D29" transform="translate(0,0)"/>
<path d="" fill="#0073AD" transform="translate(0,0)"/>
<path d="" fill="#0074AC" transform="translate(0,0)"/>
<path d="" fill="#E51E28" transform="translate(0,0)"/>
<path d="" fill="#E51D28" transform="translate(0,0)"/>
<path d="" fill="#0074AD" transform="translate(0,0)"/>
<path d="" fill="#0074AC" transform="translate(0,0)"/>
<path d="" fill="#E51E28" transform="translate(0,0)"/>
<path d="" fill="#E51D29" transform="translate(0,0)"/>
<path d="" fill="#0073AD" transform="translate(0,0)"/>
<path d="" fill="#0074AD" transform="translate(0,0)"/>
<path d="" fill="#E51E28" transform="translate(0,0)"/>
<path d="" fill="#E51D29" transform="translate(0,0)"/>
<path d="" fill="#0073AD" transform="translate(0,0)"/>
<path d="" fill="#0073AC" transform="translate(0,0)"/>
<path d="" fill="#E51D28" transform="translate(0,0)"/>
<path d="" fill="#E51D29" transform="translate(0,0)"/>
<path d="" fill="#0074AC" transform="translate(0,0)"/>
<path d="" fill="#0073AC" transform="translate(0,0)"/>
<path d="" fill="#E61D28" transform="translate(0,0)"/>
<path d="" fill="#E51E29" transform="translate(0,0)"/>
<path d="" fill="#0073AC" transform="translate(0,0)"/>
<path d="" fill="#0074AC" transform="translate(0,0)"/>
<path d="" fill="#E61E29" transform="translate(0,0)"/>
<path d="" fill="#E51E28" transform="translate(0,0)"/>
<path d="" fill="#0074AD" transform="translate(0,0)"/>
<path d="" fill="#0074AD" transform="translate(0,0)"/>
<path d="" fill="#E61E29" transform="translate(0,0)"/>
<path d="" fill="#E51E28" transform="translate(0,0)"/>
<path d="" fill="#0073AC" transform="translate(0,0)"/>
<path d="" fill="#0074AD" transform="translate(0,0)"/>
<path d="" fill="#E61D29" transform="translate(0,0)"/>
<path d="" fill="#E51E29" transform="translate(0,0)"/>
<path d="" fill="#0074AC" transform="translate(0,0)"/>
<path d="" fill="#0073AC" transform="translate(0,0)"/>
<path d="" fill="#E61E29" transform="translate(0,0)"/>
<path d="" fill="#E51E29" transform="translate(0,0)"/>
<path d="" fill="#0074AC" transform="translate(0,0)"/>
<path d="" fill="#0073AD" transform="translate(0,0)"/>
<path d="" fill="#E51E29" transform="translate(0,0)"/>
<path d="" fill="#E51E29" transform="translate(0,0)"/>
<path d="" fill="#0074AD" transform="translate(0,0)"/>
<path d="" fill="#0074AD" transform="translate(0,0)"/>
<path d="" fill="#E51E29" transform="translate(0,0)"/>
<path d="" fill="#E51E28" transform="translate(0,0)"/>
<path d="" fill="#0074AD" transform="translate(0,0)"/>
<path d="" fill="#0074AC" transform="translate(0,0)"/>
<path d="" fill="#E51D28" transform="translate(0,0)"/>
<path d="" fill="#E51E28" transform="translate(0,0)"/>
<path d="" fill="#0073AC" transform="translate(0,0)"/>
<path d="" fill="#0074AC" transform="translate(0,0)"/>
<path d="" fill="#E51D28" transform="translate(0,0)"/>
<path d="" fill="#E61E28" transform="translate(0,0)"/>
<path d="" fill="#0073AC" transform="translate(0,0)"/>
<path d="" fill="#0074AC" transform="translate(0,0)"/>
<path d="" fill="#E51D29" transform="translate(0,0)"/>
<path d="" fill="#E61D28" transform="translate(0,0)"/>
<path d="" fill="#0073AC" transform="translate(0,0)"/>
<path d="" fill="#0074AC" transform="translate(0,0)"/>
<path d="" fill="#E61D28" transform="translate(0,0)"/>
<path d="" fill="#E61D29" transform="translate(0,0)"/>
<path d="" fill="#0073AD" transform="translate(0,0)"/>
<path d="" fill="#0074AC" transform="translate(0,0)"/>
<path d="" fill="#E61E28" transform="translate(0,0)"/>
<path d="" fill="#E51D29" transform="translate(0,0)"/>
<path d="" fill="#0073AD" transform="translate(0,0)"/>
<path d="" fill="#0073AD" transform="translate(0,0)"/>
<path d="" fill="#E61E28" transform="translate(0,0)"/>
<path d="" fill="#E51E29" transform="translate(0,0)"/>
<path d="" fill="#0073AD" transform="translate(0,0)"/>
<path d="" fill="#0073AD" transform="translate(0,0)"/>
<path d="" fill="#E61E29" transform="translate(0,0)"/>
<path d="" fill="#E51E29" transform="translate(0,0)"/>
<path d="" fill="#0073AC" transform="translate(0,0)"/>
<path d="" fill="#0073AD" transform="translate(0,0)"/>
<path d="" fill="#E51E29" transform="translate(0,0)"/>
<path d="" fill="#E61D29" transform="translate(0,0)"/>
<path d="" fill="#0074AD" transform="translate(0,0)"/>
<path d="" fill="#0074AD" transform="translate(0,0)"/>
<path d="" fill="#E51D28" transform="translate(0,0)"/>
<path d="" fill="#E61D29" transform="translate(0,0)"/>
<path d="" fill="#0074AD" transform="translate(0,0)"/>
<path d="" fill="#0074AD" transform="translate(0,0)"/>
<path d="" fill="#E51E29" transform="translate(0,0)"/>
<path d="" fill="#E61D29" transform="translate(0,0)"/>
<path d="" fill="#0074AD" transform="translate(0,0)"/>
<path d="" fill="#0073AC" transform="translate(0,0)"/>
<path d="" fill="#E61E29" transform="translate(0,0)"/>
<path d="" fill="#E61E29" transform="translate(0,0)"/>
<path d="" fill="#0073AD" transform="translate(0,0)"/>
<path d="" fill="#0073AD" transform="translate(0,0)"/>
<path d="" fill="#E61E29" transform="translate(0,0)"/>
<path d="" fill="#E61E29" transform="translate(0,0)"/>
<path d="" fill="#0073AC" transform="translate(0,0)"/>
<path d="" fill="#0073AD" transform="translate(0,0)"/>
<path d="" fill="#E61D29" transform="translate(0,0)"/>
<path d="" fill="#E61E29" transform="translate(0,0)"/>
<path d="" fill="#0073AD" transform="translate(0,0)"/>
<path d="" fill="#0073AD" transform="translate(0,0)"/>
<path d="" fill="#E51D29" transform="translate(0,0)"/>
<path d="" fill="#E51E29" transform="translate(0,0)"/>
<path d="" fill="#0074AD" transform="translate(0,0)"/>
<path d="" fill="#0073AD" transform="translate(0,0)"/>
<path d="" fill="#E51E29" transform="translate(0,0)"/>
<path d="" fill="#E51D28" transform="translate(0,0)"/>
<path d="" fill="#0073AD" transform="translate(0,0)"/>
<path d="" fill="#0073AD" transform="translate(0,0)"/>
<path d="" fill="#E51E28" transform="translate(0,0)"/>
<path d="" fill="#E51E28" transform="translate(0,0)"/>
<path d="" fill="#0073AD" transform="translate(0,0)"/>
<path d="" fill="#0074AD" transform="translate(0,0)"/>
<path d="" fill="#E61E28" transform="translate(0,0)"/>
<path d="" fill="#E51E28" transform="translate(0,0)"/>
<path d="" fill="#0074AC" transform="translate(0,0)"/>
<path d="" fill="#0074AD" transform="translate(0,0)"/>
<path d="" fill="#E61E28" transform="translate(0,0)"/>
<path d="" fill="#E51E28" transform="translate(0,0)"/>
<path d="" fill="#0073AC" transform="translate(0,0)"/>
<path d="" fill="#0074AD" transform="translate(0,0)"/>
<path d="" fill="#E51D28" transform="translate(0,0)"/>
<path d="" fill="#E61E28" transform="translate(0,0)"/>
<path d="" fill="#0073AD" transform="translate(0,0)"/>
<path d="" fill="#0074AD" transform="translate(0,0)"/>
<path d="" fill="#E51E29" transform="translate(0,0)"/>
<path d="" fill="#E61D29" transform="translate(0,0)"/>
<path d="" fill="#0073AC" transform="translate(0,0)"/>
<path d="" fill="#0074AD" transform="translate(0,0)"/>
<path d="" fill="#E51E29" transform="translate(0,0)"/>
<path d="" fill="#E51D29" transform="translate(0,0)"/>
<path d="" fill="#0074AD" transform="translate(0,0)"/>
<path d="" fill="#0073AD" transform="translate(0,0)"/>
<path d="" fill="#E51D28" transform="translate(0,0)"/>
<path d="" fill="#E51D29" transform="translate(0,0)"/>
<path d="" fill="#0074AC" transform="translate(0,0)"/>
<path d="" fill="#0073AD" transform="translate(0,0)"/>
<path d="" fill="#E61E29" transform="translate(0,0)"/>
<path d="" fill="#E51D28" transform="translate(0,0)"/>
<path d="" fill="#0074AC" transform="translate(0,0)"/>
<path d="" fill="#0073AD" transform="translate(0,0)"/>
<path d="" fill="#E51E28" transform="translate(0,0)"/>
<path d="" fill="#E51E29" transform="translate(0,0)"/>
<path d="" fill="#0074AC" transform="translate(0,0)"/>
<path d="" fill="#0073AD" transform="translate(0,0)"/>
<path d="" fill="#E51E28" transform="translate(0,0)"/>
<path d="" fill="#E51E28" transform="translate(0,0)"/>
<path d="" fill="#0074AC" transform="translate(0,0)"/>
<path d="" fill="#0073AD" transform="translate(0,0)"/>
<path d="" fill="#E51E28" transform="translate(0,0)"/>
<path d="" fill="#E51E28" transform="translate(0,0)"/>
<path d="" fill="#0074AD" transform="translate(0,0)"/>
<path d="" fill="#0074AD" transform="translate(0,0)"/>
<path d="" fill="#E51D29" transform="translate(0,0)"/>
<path d="" fill="#E61E28" transform="translate(0,0)"/>
<path d="" fill="#0073AD" transform="translate(0,0)"/>
<path d="" fill="#0073AD" transform="translate(0,0)"/>
<path d="" fill="#E61E28" transform="translate(0,0)"/>
<path d="" fill="#E61E28" transform="translate(0,0)"/>
<path d="" fill="#0073AD" transform="translate(0,0)"/>
<path d="" fill="#0074AC" transform="translate(0,0)"/>
<path d="" fill="#E51E28" transform="translate(0,0)"/>
<path d="" fill="#E61E28" transform="translate(0,0)"/>
<path d="" fill="#0073AD" transform="translate(0,0)"/>
<path d="" fill="#0074AD" transform="translate(0,0)"/>
<path d="" fill="#E51D29" transform="translate(0,0)"/>
<path d="" fill="#E61D29" transform="translate(0,0)"/>
<path d="" fill="#0073AC" transform="translate(0,0)"/>
<path d="" fill="#0073AC" transform="translate(0,0)"/>
<path d="" fill="#E61D28" transform="translate(0,0)"/>
<path d="" fill="#E61D28" transform="translate(0,0)"/>
<path d="" fill="#0073AC" transform="translate(0,0)"/>
<path d="" fill="#0074AC" transform="translate(0,0)"/>
<path d="" fill="#E61D29" transform="translate(0,0)"/>
<path d="" fill="#E61D28" transform="translate(0,0)"/>
<path d="" fill="#0073AD" transform="translate(0,0)"/>
<path d="" fill="#0074AC" transform="translate(0,0)"/>
<path d="" fill="#E51D29" transform="translate(0,0)"/>
<path d="" fill="#E61D28" transform="translate(0,0)"/>
<path d="" fill="#0074AD" transform="translate(0,0)"/>
<path d="" fill="#0073AD" transform="translate(0,0)"/>
<path d="" fill="#E61E28" transform="translate(0,0)"/>
<path d="" fill="#E51E29" transform="translate(0,0)"/>
<path d="" fill="#E61E28" transform="translate(0,0)"/>
<path d="" fill="#E61D28" transform="translate(0,0)"/>
<path d="" fill="#0074AC" transform="translate(0,0)"/>
<path d="" fill="#0074AD" transform="translate(0,0)"/>
<path d="" fill="#E61E28" transform="translate(0,0)"/>
<path d="" fill="#E51E28" transform="translate(0,0)"/>
<path d="" fill="#0074AC" transform="translate(0,0)"/>
<path d="" fill="#0074AD" transform="translate(0,0)"/>
<path d="" fill="#E61E28" transform="translate(0,0)"/>
<path d="" fill="#0073AD" transform="translate(0,0)"/>
<path d="" fill="#0073AD" transform="translate(0,0)"/>
<path d="" fill="#E61D29" transform="translate(0,0)"/>
<path d="" fill="#0073AD" transform="translate(0,0)"/>
<path d="" fill="#0073AC" transform="translate(0,0)"/>
<path d="" fill="#E51D28" transform="translate(0,0)"/>
<path d="" fill="#E51D29" transform="translate(0,0)"/>
<path d="" fill="#0073AD" transform="translate(0,0)"/>
<path d="" fill="#0073AC" transform="translate(0,0)"/>
<path d="" fill="#E61D28" transform="translate(0,0)"/>
<path d="" fill="#E51E29" transform="translate(0,0)"/>
<path d="" fill="#E61E28" transform="translate(0,0)"/>
<path d="" fill="#0074AD" transform="translate(0,0)"/>
<path d="" fill="#0073AC" transform="translate(0,0)"/>
<path d="" fill="#E51E29" transform="translate(0,0)"/>
<path d="" fill="#0074AD" transform="translate(0,0)"/>
<path d="" fill="#0073AC" transform="translate(0,0)"/>
<path d="" fill="#E51E28" transform="translate(0,0)"/>
<path d="" fill="#E51D28" transform="translate(0,0)"/>
<path d="" fill="#0074AD" transform="translate(0,0)"/>
<path d="" fill="#0073AC" transform="translate(0,0)"/>
<path d="" fill="#E61E29" transform="translate(0,0)"/>
<path d="" fill="#0073AC" transform="translate(0,0)"/>
<path d="" fill="#0073AC" transform="translate(0,0)"/>
<path d="" fill="#E61D29" transform="translate(0,0)"/>
<path d="" fill="#0073AC" transform="translate(0,0)"/>
<path d="" fill="#0073AC" transform="translate(0,0)"/>
<path d="" fill="#0074AC" transform="translate(0,0)"/>
<path d="" fill="#0073AD" transform="translate(0,0)"/>
<path d="" fill="#0074AD" transform="translate(0,0)"/>
<path d="" fill="#0073AD" transform="translate(0,0)"/>
<path d="" fill="#0073AC" transform="translate(0,0)"/>
<path d="" fill="#0073AD" transform="translate(0,0)"/>
<path d="" fill="#E51D29" transform="translate(0,0)"/>
<path d="" fill="#E61E28" transform="translate(0,0)"/>
<path d="" fill="#E51E29" transform="translate(0,0)"/>
<path d="" fill="#E51E29" transform="translate(0,0)"/>
<path d="" fill="#E51E28" transform="translate(0,0)"/>
<path d="" fill="#E61E29" transform="translate(0,0)"/>
<path d="" fill="#E51D29" transform="translate(0,0)"/>
<path d="" fill="#E61E29" transform="translate(0,0)"/>
<path d="" fill="#E61D28" transform="translate(0,0)"/>
<path d="" fill="#E61E29" transform="translate(0,0)"/>
<path d="" fill="#E51D28" transform="translate(0,0)"/>
<path d="" fill="#E61E29" transform="translate(0,0)"/>
<path d="" fill="#E51D29" transform="translate(0,0)"/>
<path d="" fill="#E61E29" transform="translate(0,0)"/>
<path d="" fill="#E61E28" transform="translate(0,0)"/>
<path d="" fill="#E51D29" transform="translate(0,0)"/>
<path d="" fill="#E51D29" transform="translate(0,0)"/>
<path d="" fill="#E61D28" transform="translate(0,0)"/>
<path d="" fill="#E51D29" transform="translate(0,0)"/>
<path d="" fill="#E61D28" transform="translate(0,0)"/>
<path d="" fill="#E51E28" transform="translate(0,0)"/>
<path d="" fill="#E51E29" transform="translate(0,0)"/>
<path d="" fill="#E51E28" transform="translate(0,0)"/>
<path d="" fill="#E61E29" transform="translate(0,0)"/>
<path d="" fill="#E51E29" transform="translate(0,0)"/>
<path d="" fill="#E61E29" transform="translate(0,0)"/>
<path d="" fill="#E51E28" transform="translate(0,0)"/>
<path d="" fill="#E61D29" transform="translate(0,0)"/>
<path d="" fill="#E61D29" transform="translate(0,0)"/>
<path d="" fill="#E51D29" transform="translate(0,0)"/>
<path d="" fill="#E51D28" transform="translate(0,0)"/>
<path d="" fill="#E51D28" transform="translate(0,0)"/>
<path d="" fill="#E51D28" transform="translate(0,0)"/>
<path d="" fill="#E51E28" transform="translate(0,0)"/>
<path d="" fill="#E51E28" transform="translate(0,0)"/>
<path d="" fill="#E61E28" transform="translate(0,0)"/>
<path d="" fill="#E61E28" transform="translate(0,0)"/>
<path d="" fill="#E61D28" transform="translate(0,0)"/>
<path d="" fill="#E61D28" transform="translate(0,0)"/>
<path d="" fill="#E61D28" transform="translate(0,0)"/>
<path d="" fill="#E61D28" transform="translate(0,0)"/>
<path d="" fill="#E61D28" transform="translate(0,0)"/>
<path d="" fill="#E61D28" transform="translate(0,0)"/>
<path d="" fill="#E61D28" transform="translate(0,0)"/>
<path d="" fill="#E61D28" transform="translate(0,0)"/>
<path d="" fill="#E61D28" transform="translate(0,0)"/>
<path d="" fill="#E61D29" transform="translate(0,0)"/>
<path d="" fill="#E61D29" transform="translate(0,0)"/>
<path d="" fill="#E61D29" transform="translate(0,0)"/>
<path d="" fill="#E61D29" transform="translate(0,0)"/>
<path d="" fill="#E61D29" transform="translate(0,0)"/>
<path d="" fill="#E51E28" transform="translate(0,0)"/>
<path d="" fill="#E51E28" transform="translate(0,0)"/>
<path d="" fill="#E51E28" transform="translate(0,0)"/>
<path d="" fill="#E61D28" transform="translate(0,0)"/>
<path d="" fill="#E61D28" transform="translate(0,0)"/>
<path d="" fill="#E61D29" transform="translate(0,0)"/>
<path d="" fill="#E61D29" transform="translate(0,0)"/>
<path d="" fill="#E61E29" transform="translate(0,0)"/>
<path d="" fill="#E61E29" transform="translate(0,0)"/>
<path d="" fill="#E51D29" transform="translate(0,0)"/>
<path d="" fill="#E51D29" transform="translate(0,0)"/>
<path d="" fill="#E51D28" transform="translate(0,0)"/>
<path d="" fill="#E61D28" transform="translate(0,0)"/>
<path d="" fill="#E61D29" transform="translate(0,0)"/>
<path d="" fill="#E61E29" transform="translate(0,0)"/>
<path d="" fill="#E61E29" transform="translate(0,0)"/>
<path d="" fill="#E51E28" transform="translate(0,0)"/>
<path d="" fill="#E51E29" transform="translate(0,0)"/>
<path d="" fill="#E51E27" transform="translate(0,0)"/>
<path d="" fill="#E51E28" transform="translate(0,0)"/>
<path d="" fill="#E51D28" transform="translate(0,0)"/>
<path d="" fill="#E51E28" transform="translate(0,0)"/>
<path d="" fill="#E51D29" transform="translate(0,0)"/>
<path d="" fill="#E61D28" transform="translate(0,0)"/>
<path d="" fill="#E51D28" transform="translate(0,0)"/>
<path d="" fill="#E61D28" transform="translate(0,0)"/>
<path d="" fill="#E51E27" transform="translate(0,0)"/>
<path d="" fill="#E61D28" transform="translate(0,0)"/>
<path d="" fill="#E61F28" transform="translate(0,0)"/>
<path d="" fill="#E61D28" transform="translate(0,0)"/>
<path d="" fill="#E61E29" transform="translate(0,0)"/>
<path d="" fill="#E61D29" transform="translate(0,0)"/>
<path d="" fill="#E61E29" transform="translate(0,0)"/>
<path d="" fill="#E51D29" transform="translate(0,0)"/>
<path d="" fill="#E51E28" transform="translate(0,0)"/>
<path d="" fill="#E61D28" transform="translate(0,0)"/>
<path d="" fill="#E61E28" transform="translate(0,0)"/>
<path d="" fill="#E61E28" transform="translate(0,0)"/>
<path d="" fill="#E61D29" transform="translate(0,0)"/>
<path d="" fill="#E61E28" transform="translate(0,0)"/>
<path d="" fill="#E61D29" transform="translate(0,0)"/>
<path d="" fill="#E61E28" transform="translate(0,0)"/>
<path d="" fill="#E61D29" transform="translate(0,0)"/>
<path d="" fill="#E61D29" transform="translate(0,0)"/>
<path d="" fill="#E61D28" transform="translate(0,0)"/>
<path d="" fill="#E61D29" transform="translate(0,0)"/>
<path d="" fill="#E61D28" transform="translate(0,0)"/>
<path d="" fill="#E61D29" transform="translate(0,0)"/>
<path d="" fill="#E61D28" transform="translate(0,0)"/>
<path d="" fill="#E61D29" transform="translate(0,0)"/>
<path d="" fill="#E61D28" transform="translate(0,0)"/>
<path d="" fill="#E61D28" transform="translate(0,0)"/>
<path d="" fill="#E61D29" transform="translate(0,0)"/>
<path d="" fill="#E61E28" transform="translate(0,0)"/>
<path d="" fill="#E51D29" transform="translate(0,0)"/>
<path d="" fill="#E61E28" transform="translate(0,0)"/>
<path d="" fill="#E51D29" transform="translate(0,0)"/>
<path d="" fill="#E61E28" transform="translate(0,0)"/>
<path d="" fill="#E61E28" transform="translate(0,0)"/>
<path d="" fill="#E61E29" transform="translate(0,0)"/>
<path d="" fill="#E61D28" transform="translate(0,0)"/>
<path d="" fill="#E51E28" transform="translate(0,0)"/>
<path d="" fill="#E51D29" transform="translate(0,0)"/>
<path d="" fill="#E51D29" transform="translate(0,0)"/>
<path d="" fill="#E51D28" transform="translate(0,0)"/>
<path d="" fill="#E51D29" transform="translate(0,0)"/>
<path d="" fill="#E61E28" transform="translate(0,0)"/>
<path d="" fill="#E51D29" transform="translate(0,0)"/>
<path d="" fill="#E51E29" transform="translate(0,0)"/>
<path d="" fill="#E51D28" transform="translate(0,0)"/>
<path d="" fill="#E51D29" transform="translate(0,0)"/>
<path d="" fill="#E51E29" transform="translate(0,0)"/>
<path d="" fill="#E51D28" transform="translate(0,0)"/>
<path d="" fill="#E51D29" transform="translate(0,0)"/>
<path d="" fill="#E51D28" transform="translate(0,0)"/>
<path d="" fill="#E61E29" transform="translate(0,0)"/>
<path d="" fill="#E51D28" transform="translate(0,0)"/>
<path d="" fill="#E51D28" transform="translate(0,0)"/>
<path d="" fill="#E61E29" transform="translate(0,0)"/>
<path d="" fill="#E51D28" transform="translate(0,0)"/>
<path d="" fill="#E61E28" transform="translate(0,0)"/>
</svg>
